<svg width="251" height="251" xmlns="http://www.w3.org/2000/svg" xmlns:xlink="http://www.w3.org/1999/xlink"><defs><path id="a" d="M77 0v76H0z"/></defs><g fill="none" fill-rule="evenodd"><g fill="#FFF3CF"><path d="M112 13h26l6 20h-38zM54 177.407h142v13H54z"/><path d="M105.15 148.257l-16.497 93.557-12.802-2.257L92.347 146zM174.15 239.557L157.653 146l-12.802 2.257 16.496 93.557z"/></g><g transform="translate(22 31)"><rect stroke="#C9C9CB" stroke-width="3" fill="#F4F4F6" x="1.5" y="1.5" width="202" height="133" rx="8"/><path fill="#D8D8D8" d="M28 13h29v49H28zM78 13h29v49H78zM78 73h29v49H78zM128 13h29v49h-29z"/><g stroke="#D8D8D8" stroke-linecap="square" stroke-width="2"><path d="M59 38h14M72 35.5l2 2.48-2 2.44"/></g><g stroke="#D8D8D8" stroke-linecap="square" stroke-width="2"><path d="M111 38h14M124 35.5l2 2.48-2 2.44"/></g><g stroke="#D8D8D8" stroke-linecap="square" stroke-width="2"><path d="M60.87 47.949l16.287 19.41M77.908 64.365l.427 4.368-4.196-1.205"/></g></g><g transform="translate(132 88)"><mask id="b" fill="#fff"><use xlink:href="#a"/></mask><use fill="#CCE6D8" xlink:href="#a"/><path fill="#F4F4F6" mask="url(#b)" d="M66 27v39H27z"/></g><path d="M51.5 112.5l7 20M74.5 112.5l-6 20M67.5 112.5l-6 20" stroke="#979797" stroke-width="3" stroke-linecap="square"/><path fill="#FEFCE8" d="M51 132h23v32H51z"/></g></svg>