<?xml version="1.0" encoding="UTF-8"?>
<svg width="251px" height="251px" viewBox="0 0 251 251" version="1.1" xmlns="http://www.w3.org/2000/svg" xmlns:xlink="http://www.w3.org/1999/xlink">
    <!-- Generator: Sketch 50 (54983) - http://www.bohemiancoding.com/sketch -->
    <title>designer-icon</title>
    <desc>Created with Sketch.</desc>
    <defs>
        <polygon id="path-1" points="77 0 77 76 0 76"></polygon>
    </defs>
    <g id="designer-icon" stroke="none" stroke-width="1" fill="none" fill-rule="evenodd">
        <g id="Canvas-Holder" transform="translate(54.000000, 13.000000)" fill="#FFF3CF">
            <polygon id="Rectangle-3" points="58 0 84 0 90 20 52 20"></polygon>
            <g id="Group" transform="translate(0.000000, 133.000000)">
                <rect id="Rectangle-5" x="0" y="31.4070814" width="142" height="13"></rect>
                <rect id="Rectangle-5" transform="translate(36.500000, 47.907081) rotate(100.000000) translate(-36.500000, -47.907081) " x="-11" y="41.4070814" width="95" height="13"></rect>
                <rect id="Rectangle-5" transform="translate(105.500000, 47.907081) scale(1, -1) rotate(100.000000) translate(-105.500000, -47.907081) " x="58" y="41.4070814" width="95" height="13"></rect>
            </g>
        </g>
        <g id="Canvas" transform="translate(22.000000, 31.000000)">
            <rect id="Rectangle-2" stroke="#C9C9CB" stroke-width="3" fill="#F4F4F6" x="1.5" y="1.5" width="202" height="133" rx="8"></rect>
            <g id="Screens" transform="translate(28.000000, 13.000000)">
                <rect id="Rectangle-5" fill="#D8D8D8" x="0" y="0" width="29" height="49"></rect>
                <rect id="Rectangle-5" fill="#D8D8D8" x="50" y="0" width="29" height="49"></rect>
                <rect id="Rectangle-5" fill="#D8D8D8" x="50" y="60" width="29" height="49"></rect>
                <rect id="Rectangle-5" fill="#D8D8D8" x="100" y="0" width="29" height="49"></rect>
                <g id="arrow" transform="translate(31.000000, 22.000000)" stroke="#D8D8D8" stroke-linecap="square" stroke-width="2">
                    <path d="M0,3 L14,3" id="Line-2"></path>
                    <polyline id="Line-3" points="13 0.5 15 2.98070048 13 5.42000008"></polyline>
                </g>
                <g id="arrow" transform="translate(83.000000, 22.000000)" stroke="#D8D8D8" stroke-linecap="square" stroke-width="2">
                    <path d="M0,3 L14,3" id="Line-2"></path>
                    <polyline id="Line-3" points="13 0.5 15 2.98070048 13 5.42000008"></polyline>
                </g>
                <g id="arrow" transform="translate(41.868477, 45.673266) rotate(50.000000) translate(-41.868477, -45.673266) translate(27.868477, 42.673266)" stroke="#D8D8D8" stroke-linecap="square" stroke-width="2">
                    <path d="M0,3 L25.3382734,3" id="Line-2"></path>
                    <polyline id="Line-3" points="23.5283967 0.5 27.14815 2.98070048 23.5283967 5.42000008"></polyline>
                </g>
            </g>
        </g>
        <g id="squad" transform="translate(132.000000, 88.000000)">
            <mask id="mask-2" fill="white">
                <use xlink:href="#path-1"></use>
            </mask>
            <use id="Mask" fill="#CCE6D8" xlink:href="#path-1"></use>
            <polygon id="Rectangle" fill="#F4F4F6" mask="url(#mask-2)" points="66 27 66 66 27 66"></polygon>
        </g>
        <g id="Pencils" transform="translate(51.000000, 112.000000)">
            <path d="M0.5,0.5 L7.5,20.5" id="Line" stroke="#979797" stroke-width="3" stroke-linecap="square"></path>
            <path d="M23.5,0.5 L17.5,20.5" id="Line" stroke="#979797" stroke-width="3" stroke-linecap="square"></path>
            <path d="M16.5,0.5 L10.5,20.5" id="Line" stroke="#979797" stroke-width="3" stroke-linecap="square"></path>
            <rect id="Rectangle-4" fill="#FEFCE8" x="0" y="20" width="23" height="32"></rect>
        </g>
    </g>
</svg>