<svg width="251" height="251" xmlns="http://www.w3.org/2000/svg" xmlns:xlink="http://www.w3.org/1999/xlink"><defs><path id="a" d="M77 0v76H0z"/></defs><g fill="none" fill-rule="evenodd"><g fill="#FFF3CF"><path d="M112 13h26l6 20h-38zM54 177.407h142v13H54z"/><path d="M105.15 148.257l-16.497 93.557-12.802-2.257L92.347 146zm69 91.3L157.653 146l-12.802 2.257 16.496 93.557z"/></g><g transform="translate(22 31)"><rect stroke="#C9C9CB" stroke-width="3" fill="#F4F4F6" x="1.5" y="1.5" width="202" height="133" rx="8"/><path fill="#D8D8D8" d="M28 13h29v49H28zm50 0h29v49H78zm0 60h29v49H78zm50-60h29v49h-29z"/><path d="M59 38h14m-1-2.5l2 2.48-2 2.44M111 38h14m-1-2.5l2 2.48-2 2.44M60.87 47.949l16.287 19.41m.751-2.994l.427 4.368-4.196-1.205" stroke="#D8D8D8" stroke-linecap="square" stroke-width="2"/></g><g transform="translate(132 88)"><mask id="b" fill="#fff"><use xlink:href="#a"/></mask><use fill="#CCE6D8" xlink:href="#a"/><path fill="#F4F4F6" mask="url(#b)" d="M66 27v39H27z"/></g><path d="M51.5 112.5l7 20m16-20l-6 20m-1-20l-6 20" stroke="#979797" stroke-width="3" stroke-linecap="square"/><path fill="#FEFCE8" d="M51 132h23v32H51z"/></g></svg>