<svg width="251" height="251" xmlns="http://www.w3.org/2000/svg"><g fill="none" fill-rule="evenodd"><path fill="#FFF3CF" d="M109 210l19.304-10.1L119 237h-10z"/><path d="M96.197 234.608l20.576-2.353a2 2 0 0 1 2.227 1.987V240a2 2 0 0 1-2 2H93.426a2 2 0 0 1-1.501-3.322l2.998-3.404a2 2 0 0 1 1.274-.666z" fill="#C9C9CB"/><path fill="#FFF3CF" d="M136.427 192.456L156 194v43h-10z"/><path d="M163.982 234.573l-15.699-2.246a2 2 0 0 0-2.283 1.98V240a2 2 0 0 0 2 2h18.124a2 2 0 0 0 1.636-3.151l-2.426-3.447a2 2 0 0 0-1.352-.829z" fill="#C9C9CB"/><rect fill="#FCE9E8" x="117" y="53" width="35" height="35" rx="6"/><circle fill="#C9C9CB" cx="129" cy="66" r="3"/><circle fill="#C9C9CB" cx="142" cy="66" r="3"/><path d="M161.5 104.5l31 25" stroke="#FFF3CF" stroke-width="10" stroke-linecap="square"/><path d="M53.063 70.215l51.92 6.958a8 8 0 0 0 2.094.004l53.892-7.003A8 8 0 0 1 170 78.107V191.23a8 8 0 0 1-4.438 7.163L109.647 226.2a8 8 0 0 1-7.213-.045L48.35 198.418A8 8 0 0 1 44 191.3V78.144a8 8 0 0 1 9.063-7.93z" fill="#E8F6FC"/><text font-family="ArialNarrow-Bold, Arial Narrow" font-size="98" font-weight="bold" fill="#374EA2" fill-opacity=".42" transform="translate(44 69)"><tspan x="3" y="102">&lt;/&gt;</tspan></text><path fill="#E0E2E7" d="M223.934 30l9.11-8.724-.825 12.24-44.934 105.859-8.285-3.517z"/><rect fill="#FCE9E8" transform="rotate(25 193 129.5)" x="187" y="122" width="12" height="15" rx="3"/><path d="M182.5 106.5l21 11" stroke="#979797" stroke-width="3" stroke-linecap="square"/></g></svg>