<?xml version="1.0" encoding="UTF-8"?>
<svg width="251px" height="251px" viewBox="0 0 251 251" version="1.1" xmlns="http://www.w3.org/2000/svg" xmlns:xlink="http://www.w3.org/1999/xlink">
    <!-- Generator: Sketch 50 (54983) - http://www.bohemiancoding.com/sketch -->
    <title>developer-icon</title>
    <desc>Created with Sketch.</desc>
    <defs></defs>
    <g id="developer-icon" stroke="none" stroke-width="1" fill="none" fill-rule="evenodd">
        <polygon id="Rectangle-7" fill="#FFF3CF" points="109 191 128.304154 180.90058 119 218 109 218"></polygon>
        <path d="M96.1965999,215.60827 L116.77272,213.254758 C117.870135,213.129235 118.861521,213.917108 118.987044,215.014522 C118.995674,215.089975 119,215.165858 119,215.241802 L119,221 C119,222.104569 118.104569,223 117,223 L93.4259214,223 C92.3213519,223 91.4259214,222.104569 91.4259214,221 C91.4259214,220.513399 91.6033224,220.043489 91.9248955,219.678289 L94.9228535,216.273602 C95.2503454,215.90168 95.7042528,215.664585 96.1965999,215.60827 Z" id="Rectangle" fill="#C9C9CB"></path>
        <polygon id="Rectangle-7" fill="#FFF3CF" points="136.427304 173.455787 156 175 156 218 146 218"></polygon>
        <path d="M150.142403,215.573392 L165.840935,213.326769 C166.934364,213.170288 167.947617,213.929834 168.104098,215.023263 C168.117528,215.117111 168.124269,215.211794 168.124269,215.306598 L168.124269,221 C168.124269,222.104569 167.228839,223 166.124269,223 L148,223 C146.895431,223 146,222.104569 146,221 C146,220.587932 146.127281,220.185923 146.364437,219.848942 L148.790174,216.402162 C149.107439,215.951355 149.596705,215.651487 150.142403,215.573392 Z" id="Rectangle" fill="#C9C9CB" transform="translate(157.062135, 218.153171) scale(-1, 1) translate(-157.062135, -218.153171) "></path>
        <rect id="Rectangle-8" fill="#FCE9E8" x="117" y="34" width="35" height="35" rx="6"></rect>
        <circle id="Oval" fill="#C9C9CB" cx="129" cy="47" r="3"></circle>
        <circle id="Oval" fill="#C9C9CB" cx="142" cy="47" r="3"></circle>
        <path d="M161.5,85.5 L192.5,110.5" id="Line" stroke="#FFF3CF" stroke-width="10" stroke-linecap="square"></path>
        <g id="Group" transform="translate(44.000000, 50.000000)">
            <path d="M9.06267498,1.21459821 L60.9829293,8.17305671 C61.6776159,8.26616002 62.3815254,8.26756677 63.0765785,8.17724084 L116.969026,1.17362421 C121.350461,0.604232886 125.363899,3.69450499 125.93329,8.07594014 C125.977717,8.41780192 126,8.7621779 126,9.10691434 L126,122.231223 C126,125.267632 124.281005,128.042312 121.562228,129.39436 L65.6472667,157.200873 C63.3722545,158.332237 60.6950834,158.31564 58.4342731,157.156157 L4.34923464,129.418012 C1.67920579,128.048656 -1.73960889e-14,125.300289 -1.77635684e-14,122.299591 L-8.8817842e-16,9.1437042 C-1.42926142e-15,4.7254262 3.581722,1.1437042 8,1.1437042 C8.3554065,1.1437042 8.710418,1.16738801 9.06267498,1.21459821 Z" id="Rectangle-6" fill="#E8F6FC"></path>
            <text id="&lt;/&gt;" font-family="ArialNarrow-Bold, Arial Narrow" font-size="98" font-weight="bold" fill="#374EA2" fill-opacity="0.42">
                <tspan x="3" y="102">&lt;/&gt;</tspan>
            </text>
        </g>
        <polygon id="Rectangle-9" fill="#E0E2E7" transform="translate(207.873613, 60.352959) rotate(23.000000) translate(-207.873613, -60.352959) " points="203.373613 8.64799649 208.35079 -2.94207816 212.373613 8.64799649 212.373613 123.647996 203.373613 123.647996"></polygon>
        <rect id="Rectangle-2" fill="#FCE9E8" transform="translate(193.000000, 110.500000) rotate(25.000000) translate(-193.000000, -110.500000) " x="187" y="103" width="12" height="15" rx="3"></rect>
        <path d="M182.5,87.5 L203.5,98.5" id="Line-4" stroke="#979797" stroke-width="3" stroke-linecap="square"></path>
    </g>
</svg>