<svg width="251" height="251" xmlns="http://www.w3.org/2000/svg"><g fill="none" fill-rule="evenodd"><path fill="#FFF3CF" d="M109 191l19.304-10.1L119 218h-10z"/><path d="M96.197 215.608l20.576-2.353a2 2 0 0 1 2.227 1.987V221a2 2 0 0 1-2 2H93.426a2 2 0 0 1-1.501-3.322l2.998-3.404a2 2 0 0 1 1.274-.666z" fill="#C9C9CB"/><path fill="#FFF3CF" d="M136.427 173.456L156 175v43h-10z"/><path d="M163.982 215.573l-15.699-2.246a2 2 0 0 0-2.283 1.98V221a2 2 0 0 0 2 2h18.124a2 2 0 0 0 1.636-3.151l-2.426-3.447a2 2 0 0 0-1.352-.829z" fill="#C9C9CB"/><rect fill="#FCE9E8" x="117" y="34" width="35" height="35" rx="6"/><circle fill="#C9C9CB" cx="129" cy="47" r="3"/><circle fill="#C9C9CB" cx="142" cy="47" r="3"/><path d="M161.5 85.5l31 25" stroke="#FFF3CF" stroke-width="10" stroke-linecap="square"/><path d="M53.063 51.215l51.92 6.958a8 8 0 0 0 2.094.004l53.892-7.003A8 8 0 0 1 170 59.107V172.23a8 8 0 0 1-4.438 7.163l-55.915 27.807a8 8 0 0 1-7.213-.045L48.35 179.418A8 8 0 0 1 44 172.3V59.144a8 8 0 0 1 9.063-7.93z" fill="#E8F6FC"/><text font-family="ArialNarrow-Bold, Arial Narrow" font-size="98" font-weight="bold" fill="#374EA2" fill-opacity=".42" transform="translate(44 50)"><tspan x="3" y="102">&lt;/&gt;</tspan></text><path fill="#E0E2E7" d="M223.934 11l9.11-8.724-.825 12.24-44.934 105.859-8.285-3.517z"/><rect fill="#FCE9E8" transform="rotate(25 193 110.5)" x="187" y="103" width="12" height="15" rx="3"/><path d="M182.5 87.5l21 11" stroke="#979797" stroke-width="3" stroke-linecap="square"/></g></svg>