<svg width="600" height="300" xmlns="http://www.w3.org/2000/svg"><g fill="none" fill-rule="evenodd"><path stroke="#979797" fill="#FFF" fill-rule="nonzero" d="M14.5 20.5h255v239h-255z"/><g fill-rule="nonzero"><path fill="#E0E2E7" d="M26 197h33v11H26z"/><path stroke="#4A4A4A" fill="#4A4A4A" d="M63.5 197.5h32v10h-32z"/></g><g fill-rule="nonzero"><path stroke="#979797" fill="#FFF" d="M26.5 97.5h108v10h-108z"/><path fill="#C9C9CB" d="M26 90h25v5H26z"/></g><g fill-rule="nonzero"><path stroke="#979797" fill="#FFF" d="M26.5 127.5h84v36h-84z"/><path fill="#C9C9CB" d="M26 120h25v5H26z"/></g><g fill-rule="nonzero"><path stroke="#979797" fill="#FFF" d="M26.5 177.5h32v10h-32z"/><path fill="#C9C9CB" d="M26 170h25v5H26z"/></g><path d="M152.75 143V45h3v98h8l-9.5 19-9.5-19h8z" fill="#1CABE2" fill-rule="nonzero"/><text font-family="HelveticaNeue, Helvetica Neue" font-size="24" fill="#000" transform="translate(14 20)"><tspan x="12" y="227">Linear form</tspan></text><g fill-rule="nonzero"><path d="M26.5 67.5v10h53v-10h-53z" stroke="#979797" fill="#FFF"/><path fill="#C9C9CB" d="M26 60h25v5H26z"/></g><path fill="#C9C9CB" fill-rule="nonzero" d="M26 37h54v11H26z"/><path stroke="#979797" fill="#FFF" fill-rule="nonzero" d="M324.5 20.5h255v239h-255z"/><path stroke="#979797" fill="#D8D8D8" fill-rule="nonzero" d="M507.5 41.5h61v88h-61z"/><text font-family="HelveticaNeue, Helvetica Neue" font-size="10" fill="#000" transform="translate(324 20)"><tspan x="189" y="36">Results</tspan></text><g fill-rule="nonzero"><path stroke="#979797" fill="#FFF" d="M396.5 67.5h108v10h-108z"/><path fill="#C9C9CB" d="M396 60h25v5h-25z"/></g><g fill-rule="nonzero"><path stroke="#979797" fill="#FFF" d="M434.5 91.5h67v36h-67z"/><path fill="#C9C9CB" d="M434 84h25v5h-25z"/></g><g fill-rule="nonzero"><path stroke="#979797" fill="#FFF" d="M336.5 91.5h52v10h-52z"/><path fill="#C9C9CB" d="M336 84h25v5h-25z"/></g><g fill-rule="nonzero"><path stroke="#979797" fill="#FFF" d="M336.5 115.5h50v10h-50z"/><path fill="#C9C9CB" d="M336 108h25v5h-25z"/></g><g fill-rule="nonzero"><path stroke="#979797" fill="#FFF" d="M395.5 91.5h32v10h-32z"/><path fill="#C9C9CB" d="M395 84h25v5h-25z"/></g><g fill-rule="nonzero"><path stroke="#979797" fill="#FFF" d="M395.5 115.5h32v10h-32z"/><path fill="#C9C9CB" d="M395 108h25v5h-25z"/></g><path d="M468.649 118.796c-75.085 4.833-112.562 2.487-114.798-8.256-.996-4.785 3.704-9.324 13.185-14.143 10.526-5.35 26.339-10.827 49.646-17.674 2.783-.818 37.81-10.784 45.406-13.179 6.291-1.983 10.64-3.575 13.214-4.874.837-.422 1.457-.803 1.84-1.102-20.333-11.824-65.632-11.75-135.635.41l-1.478.257-.514-2.956 1.478-.257c71.14-12.356 117.07-12.356 138.06.19 1.447.865 1.877 2.35.931 3.703-.584.835-1.677 1.6-3.33 2.434-2.761 1.392-7.226 3.027-13.664 5.057-7.644 2.409-42.716 12.388-45.462 13.195-23.133 6.796-38.824 12.23-49.133 17.47-8.304 4.221-12.204 7.988-11.607 10.858.774 3.72 10.464 6.567 28.815 7.68 18.787 1.138 46.406.537 82.837-1.806l-.557-7.972 19.616 8.153-18.293 10.8-.557-7.988z" fill="#1CABE2" fill-rule="nonzero"/><text font-family="HelveticaNeue, Helvetica Neue" font-size="24" fill="#000" transform="translate(324 20)"><tspan x="12" y="223">Productivity tool form</tspan></text><g fill-rule="nonzero"><path d="M336.5 67.5v10h53v-10h-53z" stroke="#979797" fill="#FFF"/><path fill="#C9C9CB" d="M336 60h25v5h-25z"/></g><path fill="#C9C9CB" fill-rule="nonzero" d="M336 37h54v11h-54z"/></g></svg>