<svg width="600" height="300" xmlns="http://www.w3.org/2000/svg"><g fill="none" fill-rule="evenodd"><path stroke="#979797" fill="#FFF" fill-rule="nonzero" d="M14.5 20.5h255v239h-255z"/><g fill-rule="nonzero"><path fill="#E0E2E7" d="M26 197h33v11H26z"/><path stroke="#4A4A4A" fill="#4A4A4A" d="M63.5 197.5h32v10h-32z"/></g><g fill-rule="nonzero"><path stroke="#979797" fill="#FFF" d="M26.5 97.5h108v10h-108z"/><path fill="#C9C9CB" d="M26 90h25v5H26z"/></g><g fill-rule="nonzero"><path stroke="#979797" fill="#FFF" d="M26.5 127.5h84v36h-84z"/><path fill="#C9C9CB" d="M26 120h25v5H26z"/></g><g fill-rule="nonzero"><path stroke="#979797" fill="#FFF" d="M26.5 177.5h32v10h-32z"/><path fill="#C9C9CB" d="M26 170h25v5H26z"/></g><path d="M154.25 162l9.5-19h-19l9.5 19zm-1.5-115.5V146h3V45h-3v1.5z" fill="#1CABE2" fill-rule="nonzero"/><text font-family="HelveticaNeue, Helvetica Neue" font-size="24" fill="#000" transform="translate(14 20)"><tspan x="12" y="227">Linear form</tspan></text><g fill-rule="nonzero"><path stroke="#979797" fill="#FFF" d="M26.5 67.5h53v10h-53z"/><path fill="#C9C9CB" d="M26 60h25v5H26z"/></g><path fill="#C9C9CB" fill-rule="nonzero" d="M26 37h54v11H26z"/><g><path stroke="#979797" fill="#FFF" fill-rule="nonzero" d="M324.5 20.5h255v239h-255z"/><g fill-rule="nonzero"><path fill="#E0E2E7" d="M336 138h33v11h-33z"/><path stroke="#4A4A4A" fill="#4A4A4A" d="M373.5 138.5h32v10h-32z"/></g><g fill-rule="nonzero"><path stroke="#979797" fill="#FFF" d="M396.5 67.5h108v10h-108z"/><path fill="#C9C9CB" d="M396 60h25v5h-25z"/></g><g fill-rule="nonzero"><path stroke="#979797" fill="#FFF" d="M434.5 91.5h107v36h-107z"/><path fill="#C9C9CB" d="M434 84h25v5h-25z"/></g><g fill-rule="nonzero"><path stroke="#979797" fill="#FFF" d="M336.5 91.5h52v10h-52z"/><path fill="#C9C9CB" d="M336 84h25v5h-25z"/></g><g fill-rule="nonzero"><path stroke="#979797" fill="#FFF" d="M510.5 67.5h32v10h-32z"/><path fill="#C9C9CB" d="M510 60h25v5h-25z"/></g><g fill-rule="nonzero"><path stroke="#979797" fill="#FFF" d="M336.5 115.5h50v10h-50z"/><path fill="#C9C9CB" d="M336 108h25v5h-25z"/></g><g fill-rule="nonzero"><path stroke="#979797" fill="#FFF" d="M395.5 91.5h32v10h-32z"/><path fill="#C9C9CB" d="M395 84h25v5h-25z"/></g><g fill-rule="nonzero"><path stroke="#979797" fill="#FFF" d="M395.5 115.5h32v10h-32z"/><path fill="#C9C9CB" d="M395 108h25v5h-25z"/></g><path d="M520.664 115.99l-19.515-8.392 1.092 18.968 18.423-10.575zM341.46 59.986c86.594-12.253 142.467-12.253 167.348-.136.115.056.186.1.212.124a.602.602 0 0 1-.145-.244c-.113-.317-.036-.574.03-.65-.292.34-1.275.9-2.84 1.543-3.193 1.312-8.552 2.91-16.3 4.9-9.334 2.397-52.34 12.365-55.749 13.181-28.58 6.84-47.967 12.31-60.852 17.645-11.647 4.823-17.358 9.316-16.096 14.258 1.495 5.852 14.398 8.877 39.423 10.045 24.189 1.128 59.811.407 106.883-2.163l1.498-.082-.164-2.996-1.497.082c-46.98 2.565-82.513 3.285-106.58 2.162-23.232-1.084-35.69-4.005-36.656-7.79-.694-2.715 4.152-6.527 14.337-10.744 12.691-5.255 31.975-10.696 60.403-17.5 3.378-.808 46.422-10.785 55.795-13.192 7.878-2.023 13.337-3.651 16.695-5.031 1.985-.816 3.281-1.555 3.976-2.365 1.227-1.43.65-3.048-1.06-3.88-25.616-12.475-81.887-12.475-169.081-.137l-1.485.21.42 2.97 1.485-.21z" fill="#1CABE2" fill-rule="nonzero"/><text font-family="HelveticaNeue, Helvetica Neue" font-size="24" fill="#000" transform="translate(324 20)"><tspan x="12" y="223">Productivity tool form</tspan></text><g fill-rule="nonzero"><path stroke="#979797" fill="#FFF" d="M336.5 67.5h53v10h-53z"/><path fill="#C9C9CB" d="M336 60h25v5h-25z"/></g><path fill="#C9C9CB" fill-rule="nonzero" d="M336 37h54v11h-54z"/></g></g></svg>