<?xml version="1.0" encoding="UTF-8"?>
<svg width="114px" height="28px" viewBox="0 0 114 28" version="1.1" xmlns="http://www.w3.org/2000/svg" xmlns:xlink="http://www.w3.org/1999/xlink">
    <!-- Generator: Sketch 52.2 (67145) - http://www.bohemiancoding.com/sketch -->
    <title>resources/unicef-logo-40h</title>
    <desc>Created with Sketch.</desc>
    <g id="UNICEF-DS" stroke="none" stroke-width="1" fill="none" fill-rule="evenodd">
        <g id="99.00-Resources" transform="translate(-50.000000, -107.000000)" fill="#FFFFFE">
            <g id="Logos/Unicef-Height-40px" transform="translate(50.000000, 102.000000)">
                <g id="unicef-logo-40h" transform="translate(0.000000, 5.000000)">
                    <path d="M104.415801,18.2133038 C103.050258,17.4640511 103.023881,16.4268567 103.096692,16.0449493 C103.169228,15.6564479 103.435742,15.8265203 103.605542,15.8265203 C104.5018,15.8265203 105.445041,15.5608337 106.606989,14.3741734 C107.918131,13.0366734 108.329167,10.0649397 106.314923,8.12765287 C104.14489,6.03897687 101.836655,6.40412426 100.348296,8.28096532 C100.04359,8.66616971 99.2989983,8.94779203 98.6546927,8.9260865 C97.7004611,8.88954429 98.3016298,9.64154458 98.3016298,9.79705505 C98.3016298,9.95531306 98.1568328,10.0649397 98.0722076,10.0404866 C97.7477193,9.94789472 97.8779542,10.4273396 97.8779542,10.5726841 C97.8779542,10.7180287 97.7444223,10.7913879 97.6732602,10.7913879 C97.2721147,10.7913879 97.3822923,11.1521392 97.3946564,11.2521495 C97.4059214,11.347489 97.3704778,11.5148138 97.236671,11.589272 C97.1089089,11.6615322 96.9586168,11.977224 96.9586168,12.2192818 C96.9586168,12.6553156 97.3575642,12.9569949 98.0257736,13.4545735 C98.6895869,13.9516025 98.7744869,14.4228047 98.7865762,14.7626748 C98.799215,15.1003468 98.8297131,15.6476558 98.9819285,16.0095061 C99.161345,16.4444409 99.1377158,17.2442483 98.2178289,17.2799662 C97.0926983,17.3253006 95.0952137,18.2240192 94.9259632,18.2852893 C94.2912742,18.5100376 93.4518911,18.5916394 92.7974195,18.4276116 C92.444906,18.1781354 92.108878,17.9055799 91.7912587,17.6118685 C91.6596501,17.1593495 91.8876985,16.6738601 92.1171207,16.3471782 C92.4921643,16.7227662 93.0499213,16.6980384 93.3628697,16.7090285 C93.6777414,16.7227662 95.214733,16.4809831 95.4328902,16.4081734 C95.6518717,16.3353638 95.7474872,16.3595421 95.8810192,16.4081734 C96.4673509,16.6208326 97.272939,16.6851249 97.5996252,15.5608337 C97.9271358,14.4348939 97.1531448,14.7494866 97.0558808,14.7978433 C96.9586168,14.8475736 96.8245353,14.8343855 96.8731673,14.7384965 C97.01714,14.4513791 96.8020052,14.4813272 96.6797382,14.4703371 C96.3662403,14.43929 95.9546541,14.7736649 95.8211221,14.894007 C95.6873154,15.015448 95.5548824,15.0030841 95.5059756,14.9789058 C95.0888942,14.7714669 93.8458928,15.0714977 93.4595843,14.3975274 C93.4958522,14.2175639 93.1438883,11.4804697 92.9647466,11.0089927 C92.9251816,10.9073339 92.8911117,10.7427566 93.0117301,10.5619688 C93.3274261,10.0874695 94.1981315,10.5968625 94.6709886,10.5855976 C95.2364388,10.5696619 95.326834,10.3339234 95.4823465,10.1432444 C95.6307154,9.95778584 95.739794,10.0619174 95.8211221,10.0105385 C95.9244308,9.94349866 95.8266172,9.81024322 95.8634347,9.73825781 C95.9005269,9.66572289 95.9428395,9.70144084 96.0379055,9.61709152 C96.135719,9.53054417 96.0244424,9.35085539 96.0744482,9.27832047 C96.2137501,9.06813406 96.5945635,9.23573368 96.3662403,8.68650146 C96.240951,8.38372312 96.4148723,8.05539271 96.583848,7.8380627 C96.8583304,7.48445496 97.9172445,5.99419205 96.0510938,4.44732993 C94.2712169,2.97245322 92.4666119,3.09114672 91.3046638,4.35034195 C90.1440895,5.60898767 90.7238271,7.45066028 90.8449951,7.93395167 C90.9658882,8.41889157 90.6172214,8.85767289 90.2155264,9.0478023 C89.8973576,9.19836721 89.1717239,9.6822081 88.6241329,10.1589054 C88.7123299,6.20932403 91.1101357,2.7350662 94.7858371,1.25551868 C94.9421739,1.45141792 95.1169195,1.63605226 95.3059524,1.81052072 C94.8951904,2.10945252 94.0019549,2.90871041 94.0019549,2.90871041 C94.0019549,2.90871041 94.1244966,2.92711889 94.2374218,2.95486899 C94.3165519,2.97355223 94.4833295,3.02383212 94.4833295,3.02383212 C94.4833295,3.02383212 95.2705087,2.35480738 95.6392329,2.08802174 C95.9269036,2.30727503 96.2417753,2.48916183 96.574781,2.63560544 C96.3959141,2.93810903 95.9483347,3.78132748 95.9483347,3.78132748 C95.9483347,3.78132748 96.0516434,3.84287226 96.1439618,3.90496655 C96.237654,3.96733559 96.2961772,4.02201153 96.2961772,4.02201153 C96.2961772,4.02201153 96.7855197,3.10021359 96.9704313,2.79221493 C97.3822923,2.92904216 97.8106387,3.00844592 98.2450298,3.02767867 L98.2450298,4.71713785 C98.0046173,4.71026901 97.3847651,4.68499169 97.1336371,4.65916487 L96.9759265,4.64350392 L97.0638488,4.77483608 C97.1306147,4.87292308 97.1822691,4.96881204 97.2281535,5.05673316 L97.245738,5.09327537 L97.2872263,5.09684717 C97.4691156,5.11168386 98.0348406,5.13174086 98.2450298,5.13723593 L98.2450298,8.21117793 L98.6720025,8.21117793 L98.6720025,7.50780901 C99.297075,7.47758613 99.8171903,7.43444983 100.446384,7.38004864 L100.473585,7.3767516 L101.025298,6.88878941 L100.724713,6.91489099 C100.06035,7.00171309 99.4764914,7.0418271 98.9473091,7.07150047 C98.9473091,7.07150047 98.7670684,7.08194111 98.6720025,7.08771093 L98.6720025,5.13641167 C99.4437953,5.11992646 100.216687,5.01249785 100.972819,4.81412583 C101.179436,5.32104601 101.568492,6.55249114 101.568492,6.55249114 L101.969638,6.4269288 C101.969638,6.4269288 101.580857,5.20510004 101.376987,4.69708085 C102.016347,4.49925834 102.634825,4.23467073 103.218959,3.91403341 C103.690717,4.49376327 104.096808,5.12624579 104.432836,5.79801807 C104.130328,5.93869185 103.578891,6.13404158 103.579715,6.13404158 C104.02125,6.18267295 104.356728,6.28762878 104.356728,6.28762878 C104.356728,6.28762878 104.51279,6.22086368 104.612527,6.17662837 C104.651543,6.26454948 104.728475,6.44313925 104.728475,6.44313925 L105.280187,6.68849411 L105.216443,6.53518167 C105.216443,6.53518167 105.03373,6.09777412 104.990868,5.99666484 C105.575276,5.70762417 106.150068,5.37709573 106.699857,5.00782704 C107.745858,6.60744184 108.301142,8.46450065 108.301142,10.3850275 C108.301142,13.5746407 106.775416,16.4133938 104.415801,18.2133038 Z M97.3886117,0.609847989 C96.7824974,0.874160843 96.2033093,1.19205063 95.6568173,1.56461635 C95.4914135,1.41707373 95.3416708,1.26156326 95.2018194,1.10028296 C95.9082201,0.852455317 96.6390742,0.6895265 97.3886117,0.609847989 Z M96.7970595,2.27650264 C96.5148839,2.15725962 96.2541394,2.009717 96.0096055,1.8360728 C96.5637907,1.46955165 97.1569914,1.15715693 97.7787669,0.901910945 C97.4292758,1.33959325 97.0965449,1.79980534 96.7970595,2.27650264 Z M98.2450298,0.9890078 L98.2450298,2.60648157 C97.8916921,2.58834784 97.5413767,2.52487979 97.2012273,2.42074822 C97.5163738,1.92866472 97.8672387,1.44949464 98.2450298,0.9890078 Z M98.6720025,3.0304262 C99.1124382,3.00954494 99.5451807,2.93124019 99.9619873,2.79221493 C100.275211,3.31342229 100.556837,3.86045648 100.803294,4.42370113 C100.10596,4.60256565 99.3899429,4.70175166 98.6720025,4.71768736 L98.6720025,3.0304262 Z M98.6720025,0.970049809 C99.0495188,1.42531634 99.4053293,1.91135525 99.7309166,2.42074822 C99.3874701,2.52625355 99.0308353,2.58999636 98.6720025,2.60648157 L98.6720025,0.970049809 Z M100.925835,1.8360728 C100.679104,2.01109077 100.415062,2.15835864 100.13948,2.27567837 C99.8416437,1.80584991 99.5058905,1.34591258 99.1498052,0.898064396 C99.7718554,1.15331038 100.367529,1.46762837 100.925835,1.8360728 Z M101.728676,1.10248099 C101.589649,1.26870685 101.438532,1.42284355 101.274228,1.56571537 C100.733231,1.19452341 100.15679,0.877732638 99.5556215,0.615343059 C100.302411,0.695571077 101.031067,0.85657662 101.728676,1.10248099 Z M102.941179,3.58707676 C102.390566,3.88381053 101.809729,4.12641786 101.213781,4.30830466 C100.964851,3.73791643 100.678005,3.17659506 100.358187,2.63670446 C100.68927,2.49108511 101.001943,2.30974781 101.293735,2.08912076 C101.894629,2.52625355 102.447441,3.0304262 102.941179,3.58707676 Z M102.146307,1.25881572 C102.963984,1.58906941 103.735502,2.03279629 104.444925,2.5773577 C104.092137,2.86942066 103.711873,3.13648105 103.314025,3.37441757 C102.810944,2.79743524 102.243571,2.2737551 101.626192,1.81381776 C101.813026,1.64182208 101.988871,1.45773725 102.146307,1.25881572 Z M106.461093,4.66053863 C105.937131,5.01579489 105.383496,5.3353332 104.810627,5.61695552 C104.472951,4.93913867 104.061914,4.29456699 103.586309,3.70082471 C104.006962,3.44365544 104.408657,3.15791182 104.780404,2.84524235 C105.415642,3.37798936 105.980268,3.98876636 106.461093,4.66053863 Z M98.4618132,0.128205128 C92.8062117,0.128205128 88.2051282,4.7286775 88.2051282,10.3850275 C88.2051282,16.0394543 92.8062117,20.6410256 98.4618132,20.6410256 C104.116041,20.6410256 108.717949,16.0394543 108.717949,10.3850275 C108.717949,4.7286775 104.116041,0.128205128 98.4618132,0.128205128 Z" id="Fill-1"></path>
                    <path d="M85.9973849,3.38143975 L85.841726,3.55471726 C85.2554642,4.20872186 83.9181883,5.93340615 84.1238614,7.8259741 C84.1243963,7.8323793 84.1447229,7.95778636 84.1447229,7.95778636 C84.1452578,7.96014617 84.2115867,8.33333333 84.2115867,8.33333333 L84.3977355,8.11859059 C85.2172181,7.17298085 85.8320976,5.57168093 86.0827031,3.72428649 L86.1538462,3.20512821 L85.9973849,3.38143975 Z" id="Fill-3"></path>
                    <path d="M83.4869004,5.45556482 L83.4287096,5.65829166 C83.3483508,5.93722712 83.202412,6.5227832 83.1243624,7.30213543 C83.015601,8.4053743 83.0405399,9.96586489 83.7840892,11.1310233 C83.7829346,11.1298325 83.8656025,11.2688537 83.8656025,11.2688537 L83.951965,11.4102564 L84.061881,10.7020521 C84.1847282,9.44967056 84.0226253,6.82553386 83.666553,5.65382631 L83.5432439,5.25641026 L83.4869004,5.45556482 Z" id="Fill-5"></path>
                    <path d="M83.1047879,10.5983355 L83.0931032,10.8117477 C83.027863,11.9739663 83.0753325,14.8404028 84.9100889,16.3604641 C84.9100889,16.3620039 85.1282051,16.5384615 85.1282051,16.5384615 L85.1182244,16.21357 C85.086578,15.1252603 84.0829027,11.8778847 83.3294768,10.7141262 L83.1159859,10.3846154 L83.1047879,10.5983355 Z" id="Fill-7"></path>
                    <path d="M83.1223734,15.6922766 L83.1651503,15.8725805 C83.5334319,17.3842508 85.2291317,19.8330493 87.8472066,20.5429607 L88.2051282,20.6410256 L88.0757952,20.342309 C87.5875379,19.2118769 85.0637057,16.5774049 83.4428654,15.7092331 L83.0769231,15.5128205 L83.1223734,15.6922766 Z" id="Fill-9"></path>
                    <path d="M86.0224365,5.38356702 L85.8901721,5.51072378 C84.6435961,6.71431663 84.0604789,8.17323756 84.1049232,9.97304682 L84.1162479,10.3846154 L84.2974437,10.1441674 C84.9715862,9.26151005 85.8143177,7.00481572 86.0636756,5.72377899 L86.1538462,5.25641026 L86.0224365,5.38356702 Z" id="Fill-11"></path>
                    <path d="M86.007617,8.45284052 L85.8746737,8.57263429 C85.4283428,8.98044897 83.9847878,10.452938 84.1102624,12.2756374 C84.1293823,12.5562071 84.1960033,12.8562647 84.3083329,13.1703651 L84.4102063,13.4615385 L84.5972232,13.210774 C85.2867358,12.2796497 86.201505,9.82273101 86.1519127,8.67981819 L86.1363778,8.33333333 L86.007617,8.45284052 Z" id="Fill-13"></path>
                    <path d="M86.7049347,11.5621724 L86.5723487,11.7140883 C85.5961787,12.8447055 85.0990811,14.005956 85.1295239,15.0756193 C85.1563615,15.8667701 85.4804163,16.6238491 86.0916741,17.3265385 L86.2955602,17.5641026 L86.4674014,17.31341 C86.8899944,16.6941806 87.2232621,14.6880149 87.1747941,13.1013372 C87.1555671,12.5408736 87.0826648,12.0769986 86.9636979,11.7606634 L86.835518,11.4102564 L86.7049347,11.5621724 Z" id="Fill-15"></path>
                    <path d="M86.4791223,15.6689178 L86.4368696,15.8281307 C86.2347198,16.5597003 86.138892,17.2756913 86.1557378,17.9552285 C86.1952288,19.4922101 86.7975358,20.6948756 87.9510601,21.5280174 L88.1454774,21.6666667 L88.1880062,21.3706739 C88.1880062,21.3650656 88.2051282,21.1348143 88.2051282,21.1348143 C88.1730935,19.8851016 87.3476484,16.7376076 86.7014318,15.7767215 L86.5230318,15.5128205 L86.4791223,15.6689178 Z" id="Fill-17"></path>
                    <path d="M84.1963718,19.7053254 L84.2901795,19.7950894 C85.2629311,20.725243 86.9127699,21.9253956 89.9988261,21.6174059 L90.2564103,21.5916076 L90.1105904,21.4682704 C89.5344316,20.979339 85.7886257,19.7730018 84.4641726,19.6494879 L84.1025641,19.6153846 L84.1963718,19.7053254 Z" id="Fill-19"></path>
                    <path d="M89.6740712,23.3972104 L89.2307692,23.5363141 L89.6559426,23.7390365 C91.4509614,24.5937666 93.7023122,24.8472519 95.007008,24.3359961 C95.4976144,24.1415145 95.7950374,23.8290254 96.1593098,23.4156696 C98.4562655,23.6925587 100.607625,25.9152525 101.861618,27.7308535 C101.861618,27.7315128 101.9296,27.8205128 101.9296,27.8205128 L102.026475,27.7852424 C102.167822,27.7292054 102.384799,27.5334053 102.475725,27.4193533 L102.564103,27.3082681 L102.485073,27.1863051 C101.176695,25.1963299 99.1281583,23.9615366 99.0383648,23.9120921 C97.1946252,22.8661767 93.9402507,22.0500133 89.6740712,23.3972104" id="Fill-21"></path>
                    <path d="M89.254902,18.7454452 L89.2804712,18.8999806 C89.5534008,20.6415648 90.2498025,22.9260638 93.1477411,22.6729758 L93.3333333,22.6581054 L93.2870789,22.4744124 C93.0911441,21.6827832 90.4362566,19.3828307 89.5085829,18.7361148 L89.2307692,18.5897436 L89.254902,18.7454452 Z" id="Fill-23"></path>
                    <path d="M109.74359,3.20512821 L109.81472,3.72428649 C110.065548,5.57168093 110.680851,7.17298085 111.500187,8.11859059 L111.687372,8.33333333 C111.687372,8.33333333 111.752084,7.96014617 111.752084,7.95778636 C111.752084,7.95778636 111.772407,7.8323793 111.773477,7.8259741 C111.979648,5.93340615 110.642345,4.20872186 110.056991,3.55471726 L109.90029,3.38143975 L109.74359,3.20512821 Z" id="Fill-25"></path>
                    <path d="M112.354574,5.25641026 L112.232337,5.65382631 C111.875083,6.82553386 111.712485,9.44967056 111.835645,10.7020521 L111.945888,11.4102564 L112.032377,11.2688537 C112.032377,11.2688537 112.114944,11.1301302 112.114713,11.1310233 C112.856437,9.96586489 112.882498,8.4053743 112.772485,7.30213543 C112.694531,6.5227832 112.549922,5.93722712 112.470122,5.65829166 L112.411541,5.45556482 L112.354574,5.25641026 Z" id="Fill-27"></path>
                    <path d="M113.807469,10.3846154 L113.593078,10.7141262 C112.84076,11.8778847 111.835314,15.1252603 111.804617,16.21357 L111.794872,16.5384615 C111.794872,16.5384615 112.010238,16.3620039 112.010238,16.3604641 C113.847668,14.8404028 113.894444,11.9739663 113.83037,10.8120556 L113.817702,10.5983355 L113.807469,10.3846154 Z" id="Fill-29"></path>
                    <path d="M112.820513,15.5128205 L112.454332,15.7092223 C110.833914,16.5773463 108.310071,19.211673 107.822943,20.3423254 L107.692308,20.6410256 L108.052141,20.5429661 C110.668865,19.8330938 112.364123,17.3844303 112.73164,15.8725607 L112.778081,15.6922667 L112.820513,15.5128205 Z" id="Fill-31"></path>
                    <path d="M107.692308,5.25641026 L107.780622,5.72048459 C108.018545,6.99443378 108.856657,9.2489864 109.53835,10.142388 L109.723108,10.3846154 L109.738047,9.97733921 C109.807469,8.20122751 109.225294,6.74218315 107.960108,5.51567713 L107.825219,5.38570958 L107.692308,5.25641026 Z" id="Fill-33"></path>
                    <path d="M109.759167,8.33333333 L109.745417,8.6795316 C109.69729,9.82244442 110.609903,12.2793631 111.300715,13.2104874 L111.487542,13.4615385 L111.591269,13.1703651 C111.702767,12.8559781 111.76853,12.5562071 111.787063,12.2753509 C111.913508,10.4526514 110.468811,8.98044897 110.021921,8.57263429 L109.891291,8.45284052 L109.759167,8.33333333 Z" id="Fill-35"></path>
                    <path d="M110.090953,11.4102564 L109.957722,11.7606634 C109.836931,12.076686 109.765901,12.5408736 109.748645,13.1013372 C109.698081,14.6880149 110.033567,16.6941806 110.453728,17.3130974 L110.62749,17.5641026 L110.83416,17.3265385 C111.445339,16.6238491 111.768384,15.8667701 111.793265,15.0756193 C111.826974,14.005956 111.329764,12.8447055 110.350193,11.7140883 L110.220573,11.5621724 L110.090953,11.4102564 Z" id="Fill-37"></path>
                    <path d="M108.34531,15.5128205 L108.168887,15.7767215 C107.523106,16.7376076 106.697037,19.8851016 106.666667,21.1348143 C106.666667,21.1348143 106.682128,21.3650656 106.683508,21.3706739 L106.72575,21.6666667 C106.72575,21.6666667 106.920396,21.5280174 106.920672,21.5280174 C108.072807,20.6948756 108.677173,19.4922101 108.716103,17.9552285 C108.732668,17.2756913 108.637692,16.5597003 108.43366,15.8281307 L108.388933,15.6689178 L108.34531,15.5128205 Z" id="Fill-39"></path>
                    <path d="M111.794872,19.6153846 C111.794872,19.6153846 111.435048,19.6494879 111.434739,19.6494879 C110.109709,19.7730018 106.36253,20.979339 105.785946,21.4682704 L105.641026,21.5916076 L105.898042,21.6174059 C108.987816,21.9253956 110.63551,20.725243 111.608148,19.7950894 L111.701355,19.7053254 L111.794872,19.6153846 Z" id="Fill-41"></path>
                    <path d="M97.8845623,23.9119478 C97.7944894,23.9613899 95.7449068,25.1964543 94.438567,27.1860055 L94.3589744,27.3079628 L94.4479142,27.4193724 C94.5391201,27.5330892 94.7546718,27.7288801 94.8965791,27.7849145 L94.9931666,27.8205128 C94.9931666,27.8205128 95.0602964,27.7311874 95.0602964,27.7305281 C96.3128191,25.9153428 98.4643709,23.6924247 100.761796,23.4158784 C101.125486,23.828885 101.423463,24.1413593 101.916314,24.3361613 C103.219822,24.8470632 105.469944,24.5939195 107.266869,23.73923 L107.692308,23.5361876 L107.248458,23.3970904 C102.981044,22.0499573 99.7273738,22.8664116 97.8845623,23.9119478" id="Fill-43"></path>
                    <path d="M106.666667,18.5897436 L106.389063,18.7361059 C105.460554,19.3827826 102.80521,21.6825956 102.609508,22.4741768 L102.564103,22.6578586 L102.747448,22.6730197 C105.647061,22.9258008 106.343945,20.6414404 106.617526,18.8999618 L106.643102,18.7454358 L106.666667,18.5897436 Z" id="Fill-45"></path>
                    <path d="M33.1455512,24.7179487 L36.5951421,24.7179487 L36.5951421,9.03050392 L33.1455512,9.03050392 L33.1455512,24.7179487 Z M32.8205128,5.37360902 L36.9230769,5.37360902 L36.9230769,2.15384615 L32.8205128,2.15384615 L32.8205128,5.37360902 Z" id="Fill-47"></path>
                    <path d="M11.2017087,8.33333333 L14.3589744,8.33333333 L14.3589744,24.2680851 L11.2676999,24.2680851 L11.2676999,21.9184168 L11.2017087,21.9184168 C9.93815431,23.9186314 7.81111707,24.7435897 5.48374946,24.7435897 C1.99446566,24.7435897 0,22.2045637 0,18.9984244 L0,8.33333333 L3.15873868,8.33333333 L3.15873868,17.7612682 C3.15873868,20.5234156 3.82306956,22.5537361 6.84746904,22.5537361 C8.14431363,22.5537361 9.90515872,21.9184168 10.569195,20.2699069 C11.1660617,18.7769911 11.2017087,16.9045157 11.2017087,16.5235493 L11.2017087,8.33333333 Z" id="Fill-49"></path>
                    <path d="M19.4661877,11.1570994 L19.5323044,11.1570994 C20.5828901,9.15801034 22.8832852,8.33333333 24.5262997,8.33333333 C25.6759148,8.33333333 30.7692308,8.61891749 30.7692308,13.729045 L30.7692308,24.7435897 L27.6492216,24.7435897 L27.6492216,14.7135366 C27.6492216,12.0785655 26.4981502,10.6512075 23.8695017,10.6512075 C23.8695017,10.6512075 22.1592054,10.5558252 20.8459006,11.8250568 C20.3871613,12.268486 19.5323044,12.9668307 19.5323044,16.0784319 L19.5323044,24.7435897 L16.4102564,24.7435897 L16.4102564,8.80883799 L19.4661877,8.80883799 L19.4661877,11.1570994 Z" id="Fill-50"></path>
                    <path d="M49.2229016,13.7638855 C49.0667026,11.8197836 48.1339557,10.465654 46.0141522,10.465654 C43.1820036,10.465654 42.0900004,12.897914 42.0900004,16.5401126 C42.0900004,20.1795594 43.1820036,22.6173229 46.0141522,22.6173229 C47.9746994,22.6173229 49.1898274,21.3564772 49.3446367,19.1314229 L52.3076923,19.1314229 C52.0550502,22.6173229 49.440524,24.7435897 45.981356,24.7435897 C40.9674245,24.7435897 38.974359,21.2298973 38.974359,16.6633904 C38.974359,12.1238505 41.2778769,8.33333333 46.2351098,8.33333333 C49.5369671,8.33333333 52.0269789,10.4029144 52.178175,13.7638855 L49.2229016,13.7638855 Z" id="Fill-51"></path>
                    <path d="M65.5590139,15.060779 C65.622503,12.4708445 64.4176211,10.4653789 61.5086922,10.4653789 C59.0072221,10.4653789 57.5258101,12.5253289 57.5258101,15.060779 L65.5590139,15.060779 Z M57.5258101,17.0934868 C57.3045859,19.8086253 58.443439,22.6170477 61.5086922,22.6170477 C63.8498876,22.6170477 65.0194977,21.7241092 65.3654427,19.4665845 L68.5322784,19.4665845 C68.055687,22.988257 65.271761,24.7435897 61.4793461,24.7435897 C56.3863926,24.7435897 54.3589744,21.2298973 54.3589744,16.6633904 C54.3589744,12.1235753 56.7044024,8.33333333 61.7318916,8.33333333 C66.4741033,8.42964411 68.7179487,11.356116 68.7179487,15.6479996 L68.7179487,17.0934868 L57.5258101,17.0934868 Z" id="Fill-52"></path>
                    <path d="M72.3033451,23.7179487 L72.3033451,9.98620701 L69.7435897,9.98620701 L69.7435897,7.90322187 L72.3033451,7.90322187 L72.3033451,4.50576153 C72.3950765,1.04002043 74.8506758,0.128205128 76.9554752,0.128205128 C77.6359265,0.128205128 78.2909997,0.315345032 78.974359,0.439823978 L78.974359,2.92715496 C78.4953466,2.90074182 78.0232075,2.83133708 77.5468387,2.83133708 C75.9506595,2.83133708 75.030702,3.27726955 75.1179393,5.00648722 L75.1179393,7.90322187 L78.5561484,7.90322187 L78.5561484,9.98620701 L75.1179393,9.98620701 L75.1179393,23.7179487 L72.3033451,23.7179487 Z" id="Fill-53"></path>
                </g>
            </g>
        </g>
    </g>
</svg>